<?xml version="1.0" encoding="UTF-8" standalone="no"?>
<svg
   viewBox="-0.5 -0.5 16 16"
   fill="currentColor"
   id="Barbell-Thin--Streamline-Phosphor-Thin.svg"
   height="16"
   width="16"
   version="1.1"
   sodipodi:docname="Barbell-Thin--Streamline-Phosphor-Thin.svg"
   xmlns:inkscape="http://www.inkscape.org/namespaces/inkscape"
   xmlns:sodipodi="http://sodipodi.sourceforge.net/DTD/sodipodi-0.dtd"
   xmlns="http://www.w3.org/2000/svg"
   xmlns:svg="http://www.w3.org/2000/svg">
  <defs
     id="defs1" />
  <sodipodi:namedview
     id="namedview1"
     pagecolor="#ffffff"
     bordercolor="#000000"
     borderopacity="0.25"
     inkscape:showpageshadow="2"
     inkscape:pageopacity="0.0"
     inkscape:pagecheckerboard="0"
     inkscape:deskcolor="#d1d1d1" />
  <desc
     id="desc1">Barbell Thin Streamline Icon: https://streamlinehq.com</desc>
  <path
     d="M 14.359761,4.669219 H 13.66756 V 2.656444 A 0.69220117,0.67092495 0 0 0 12.97536,1.9855191 H 11.821691 V 1.3145942 A 0.69220117,0.67092495 0 0 0 11.12949,0.64366909 H 9.745087 A 0.69220117,0.67092495 0 0 0 9.0528857,1.3145942 V 4.669219 H 5.8226135 V 1.3145942 A 0.69220117,0.67092495 0 0 0 5.1304123,0.64366909 H 3.74601 A 0.69220117,0.67092495 0 0 0 3.0538088,1.3145942 V 1.9855191 H 1.9001403 A 0.69220117,0.67092495 0 0 0 1.2079391,2.656444 V 4.669219 H 0.51573784 a 0.23073372,0.22364165 0 0 0 0,0.4472832 H 1.2079391 v 2.0127749 a 0.69220117,0.67092495 0 0 0 0.6922012,0.670925 H 3.0538088 V 8.471127 A 0.69220117,0.67092495 0 0 0 3.74601,9.142052 H 5.1304123 A 0.69220117,0.67092495 0 0 0 5.8226135,8.471127 V 5.1165022 H 9.0528857 V 8.471127 A 0.69220117,0.67092495 0 0 0 9.745087,9.142052 H 11.12949 A 0.69220117,0.67092495 0 0 0 11.821691,8.471127 V 7.8002021 h 1.153669 a 0.69220117,0.67092495 0 0 0 0.6922,-0.670925 V 5.1165022 h 0.692201 a 0.23073372,0.22364165 0 0 0 0,-0.4472832 z M 1.9001403,7.3529187 A 0.23073372,0.22364165 0 0 1 1.6694065,7.1292771 V 2.656444 A 0.23073372,0.22364165 0 0 1 1.9001403,2.4328025 H 3.0538088 V 7.3529187 Z M 5.3611461,8.471127 A 0.23073372,0.22364165 0 0 1 5.1304123,8.6947687 H 3.74601 A 0.23073372,0.22364165 0 0 1 3.5152762,8.471127 V 1.3145942 A 0.23073372,0.22364165 0 0 1 3.74601,1.0909524 h 1.3844023 a 0.23073372,0.22364165 0 0 1 0.2307338,0.2236418 z m 5.9990769,0 A 0.23073372,0.22364165 0 0 1 11.12949,8.6947687 H 9.745087 A 0.23073372,0.22364165 0 0 1 9.514353,8.471127 V 1.3145942 A 0.23073372,0.22364165 0 0 1 9.745087,1.0909524 h 1.384403 a 0.23073372,0.22364165 0 0 1 0.230733,0.2236418 z M 13.206092,7.1292771 A 0.23073372,0.22364165 0 0 1 12.97536,7.3529187 H 11.821691 V 2.4328025 h 1.153669 a 0.23073372,0.22364165 0 0 1 0.230732,0.2236415 z"
     stroke-width="0.969216"
     id="path1"
     style="fill:#87140a;fill-opacity:1" />
  <text
     xml:space="preserve"
     style="font-style:normal;font-variant:normal;font-weight:normal;font-stretch:normal;font-size:4.52827px;font-family:'Agency FB';-inkscape-font-specification:'Agency FB, Normal';font-variant-ligatures:normal;font-variant-caps:normal;font-variant-numeric:normal;font-variant-east-asian:normal;fill:#87140a;fill-opacity:1;stroke:#87140a;stroke-width:0.189528;stroke-opacity:1"
     x="0.23178367"
     y="15.365685"
     id="text1"
     transform="scale(1.151799,0.86820704)"><tspan
       id="tspan1"
       x="0.23178367"
       y="15.365685"
       sodipodi:role="line"
       style="font-style:normal;font-variant:normal;font-weight:normal;font-stretch:normal;font-size:4.52827px;font-family:'Agency FB';-inkscape-font-specification:'Agency FB, Normal';font-variant-ligatures:normal;font-variant-caps:normal;font-variant-numeric:normal;font-variant-east-asian:normal;fill:#87140a;fill-opacity:1;stroke:#87140a;stroke-width:0.189528;stroke-opacity:1">Forge Fit</tspan></text>
</svg>
