<svg xmlns="http://www.w3.org/2000/svg" viewBox="-0.5 -0.5 16 16" fill="#93160b" id="Barbell-Thin--Streamline-Phosphor-Thin.svg" height="16" width="16"><desc>Barbell Thin Streamline Icon: https://streamlinehq.com</desc><path d="M14.53125 7.265625h-0.703125V5.15625a0.703125 0.703125 0 0 0 -0.703125 -0.703125h-1.171875V3.75a0.703125 0.703125 0 0 0 -0.703125 -0.703125h-1.40625a0.703125 0.703125 0 0 0 -0.703125 0.703125v3.515625h-3.28125V3.75a0.703125 0.703125 0 0 0 -0.703125 -0.703125H3.75a0.703125 0.703125 0 0 0 -0.703125 0.703125v0.703125H1.875a0.703125 0.703125 0 0 0 -0.703125 0.703125v2.109375H0.46875a0.234375 0.234375 0 0 0 0 0.46875h0.703125v2.109375a0.703125 0.703125 0 0 0 0.703125 0.703125h1.171875v0.703125a0.703125 0.703125 0 0 0 0.703125 0.703125h1.40625a0.703125 0.703125 0 0 0 0.703125 -0.703125v-3.515625h3.28125v3.515625a0.703125 0.703125 0 0 0 0.703125 0.703125h1.40625a0.703125 0.703125 0 0 0 0.703125 -0.703125v-0.703125h1.171875a0.703125 0.703125 0 0 0 0.703125 -0.703125v-2.109375h0.703125a0.234375 0.234375 0 0 0 0 -0.46875ZM1.875 10.078125a0.234375 0.234375 0 0 1 -0.234375 -0.234375V5.15625a0.234375 0.234375 0 0 1 0.234375 -0.234375h1.171875v5.15625Zm3.515625 1.171875a0.234375 0.234375 0 0 1 -0.234375 0.234375H3.75a0.234375 0.234375 0 0 1 -0.234375 -0.234375V3.75a0.234375 0.234375 0 0 1 0.234375 -0.234375h1.40625a0.234375 0.234375 0 0 1 0.234375 0.234375Zm6.09375 0a0.234375 0.234375 0 0 1 -0.234375 0.234375h-1.40625a0.234375 0.234375 0 0 1 -0.234375 -0.234375V3.75a0.234375 0.234375 0 0 1 0.234375 -0.234375h1.40625a0.234375 0.234375 0 0 1 0.234375 0.234375Zm1.875 -1.40625a0.234375 0.234375 0 0 1 -0.234375 0.234375h-1.171875V4.921875h1.171875a0.234375 0.234375 0 0 1 0.234375 0.234375Z" stroke-width="1"></path></svg>